<?xml version="1.0" encoding="UTF-8"?>
<svg xmlns="http://www.w3.org/2000/svg" xmlns:xlink="http://www.w3.org/1999/xlink" width="216pt" height="180pt" viewBox="0 0 216 180" version="1.1">
<g id="surface1">
<path style="fill-rule:nonzero;fill:rgb(100%,73.333333%,69.411765%);fill-opacity:1;stroke-width:3;stroke-linecap:butt;stroke-linejoin:miter;stroke:rgb(36.862745%,36.862745%,36.862745%);stroke-opacity:1;stroke-miterlimit:4;" d="M 450.903194 305.453125 C 450.903194 341.601562 421.601147 370.90625 385.447338 370.90625 C 349.30136 370.90625 319.999313 341.609375 319.999313 305.460938 C 319.999313 269.3125 349.30136 240.007812 385.447338 240.007812 C 421.601147 240.007812 450.911024 269.3125 450.911024 305.460938 Z M 450.903194 305.453125 " transform="matrix(0.498845,0,0,0.5,-149.65358,-110)"/>
<path style=" stroke:none;fill-rule:nonzero;fill:rgb(20%,20%,20%);fill-opacity:1;" d="M 49.722656 47.84375 L 47.394531 41.84375 L 37.996094 41.84375 L 35.671875 47.84375 L 32.761719 47.84375 L 41.15625 27.175781 L 44.316406 27.175781 L 52.546875 47.84375 Z M 46.5625 39.59375 L 42.652344 29.34375 C 41.65625 33.09375 40.078125 36.175781 38.828125 39.59375 L 46.5625 39.59375 "/>
<path style="fill-rule:nonzero;fill:rgb(100%,100%,100%);fill-opacity:1;stroke-width:3;stroke-linecap:butt;stroke-linejoin:miter;stroke:rgb(36.862745%,36.862745%,36.862745%);stroke-opacity:1;stroke-miterlimit:4;" d="M 552.732114 246.117188 C 552.732114 242.820312 555.410174 240.117188 558.730342 240.117188 L 706.728389 240.117188 C 710.032896 240.117188 712.726617 242.820312 712.726617 246.117188 L 712.726617 364.796875 C 712.726617 368.101562 710.032896 370.796875 706.728389 370.796875 L 558.730342 370.796875 C 555.410174 370.796875 552.732114 368.101562 552.732114 364.796875 Z M 552.732114 246.117188 " transform="matrix(0.498845,0,0,0.5,-149.65358,-110)"/>
<path style=" stroke:none;fill-rule:nonzero;fill:rgb(20%,20%,20%);fill-opacity:1;" d="M 159.910156 48.421875 L 159.910156 46.171875 L 165.230469 46.171875 L 165.230469 30.335938 L 160.574219 33.585938 L 160.574219 31.171875 L 165.398438 27.753906 L 167.808594 27.753906 L 167.808594 46.171875 L 172.878906 46.171875 L 172.878906 48.421875 L 159.910156 48.421875 "/>
<path style="fill:none;stroke-width:2;stroke-linecap:butt;stroke-linejoin:miter;stroke:rgb(36.862745%,36.862745%,36.862745%);stroke-opacity:1;stroke-miterlimit:4;" d="M 453.40115 305.453125 L 532.732802 305.453125 " transform="matrix(0.498845,0,0,0.5,-149.65358,-110)"/>
<path style=" stroke:none;fill-rule:nonzero;fill:rgb(36.862745%,36.862745%,36.862745%);fill-opacity:1;" d="M 76.542969 43.226562 L 76.007812 43.226562 L 76.027344 42.734375 L 76.027344 42.226562 L 76.546875 42.226562 Z M 76.542969 43.226562 "/>
<path style="fill-rule:nonzero;fill:rgb(36.862745%,36.862745%,36.862745%);fill-opacity:1;stroke-width:2;stroke-linecap:butt;stroke-linejoin:miter;stroke:rgb(36.862745%,36.862745%,36.862745%);stroke-opacity:1;stroke-miterlimit:4;" d="M 548.002441 305.453125 L 533.727286 310.09375 L 533.727286 300.8125 Z M 548.002441 305.453125 " transform="matrix(0.498845,0,0,0.5,-149.65358,-110)"/>
<path style="fill-rule:nonzero;fill:rgb(69.803922%,83.921569%,93.72549%);fill-opacity:1;stroke-width:3;stroke-linecap:butt;stroke-linejoin:miter;stroke:rgb(36.862745%,36.862745%,36.862745%);stroke-opacity:1;stroke-miterlimit:4;" d="M 450.903194 494.546875 C 450.903194 530.703125 421.601147 560 385.447338 560 C 349.30136 560 319.999313 530.703125 319.999313 494.546875 C 319.999313 458.398438 349.30136 429.09375 385.447338 429.09375 C 421.601147 429.09375 450.911024 458.390625 450.911024 494.539062 Z M 450.903194 494.546875 " transform="matrix(0.498845,0,0,0.5,-149.65358,-110)"/>
<path style=" stroke:none;fill-rule:nonzero;fill:rgb(20%,20%,20%);fill-opacity:1;" d="M 45.980469 131.472656 C 48.890625 131.890625 51.050781 133.390625 51.050781 136.554688 C 51.050781 143.804688 42.238281 142.222656 35.171875 142.390625 L 35.171875 121.722656 C 41.488281 121.972656 49.886719 120.304688 49.886719 126.722656 C 49.886719 129.472656 48.308594 130.890625 45.980469 131.472656 Z M 37.914062 130.554688 C 42.070312 130.472656 47.058594 131.304688 47.058594 127.054688 C 47.058594 123.140625 41.824219 124.054688 37.914062 123.972656 Z M 37.914062 140.140625 C 42.488281 139.972656 48.222656 141.304688 48.222656 136.390625 C 48.222656 131.722656 42.40625 132.890625 37.914062 132.722656 L 37.914062 140.140625 "/>
<path style="fill-rule:nonzero;fill:rgb(100%,100%,100%);fill-opacity:1;stroke-width:3;stroke-linecap:butt;stroke-linejoin:miter;stroke:rgb(36.862745%,36.862745%,36.862745%);stroke-opacity:1;stroke-miterlimit:4;" d="M 552.732114 435.328125 C 552.732114 432.03125 555.410174 429.328125 558.730342 429.328125 L 706.728389 429.328125 C 710.032896 429.328125 712.726617 432.03125 712.726617 435.328125 L 712.726617 554 C 712.726617 557.296875 710.032896 560 706.728389 560 L 558.730342 560 C 555.410174 560 552.732114 557.296875 552.732114 554 Z M 552.732114 435.328125 " transform="matrix(0.498845,0,0,0.5,-149.65358,-110)"/>
<path style=" stroke:none;fill-rule:nonzero;fill:rgb(20%,20%,20%);fill-opacity:1;" d="M 147.4375 143.027344 L 147.4375 140.777344 L 152.761719 140.777344 L 152.761719 124.941406 L 148.105469 128.191406 L 148.105469 125.777344 L 152.925781 122.359375 L 155.335938 122.359375 L 155.335938 140.777344 L 160.410156 140.777344 L 160.410156 143.027344 L 147.4375 143.027344 "/>
<path style=" stroke:none;fill-rule:nonzero;fill:rgb(20%,20%,20%);fill-opacity:1;" d="M 164.566406 143.027344 L 164.566406 139.859375 L 167.394531 139.859375 L 167.394531 143.027344 L 164.566406 143.027344 "/>
<path style=" stroke:none;fill-rule:nonzero;fill:rgb(20%,20%,20%);fill-opacity:1;" d="M 178.535156 122.109375 C 184.1875 122.109375 185.601562 126.691406 185.601562 132.691406 C 185.601562 138.691406 183.9375 143.359375 178.449219 143.359375 C 172.878906 143.359375 171.300781 138.691406 171.300781 132.691406 C 171.300781 126.609375 172.714844 122.109375 178.535156 122.109375 Z M 178.449219 141.191406 C 182.359375 141.191406 182.941406 137.109375 182.941406 132.691406 C 182.941406 128.277344 182.609375 124.191406 178.535156 124.191406 C 174.292969 124.191406 173.960938 128.191406 173.960938 132.691406 C 173.960938 137.109375 174.375 141.191406 178.449219 141.191406 "/>
<path style="fill:none;stroke-width:2;stroke-linecap:butt;stroke-linejoin:miter;stroke:rgb(36.862745%,36.862745%,36.862745%);stroke-opacity:1;stroke-miterlimit:4;" d="M 453.40115 494.546875 L 501.76284 494.546875 C 501.786332 494.546875 501.817654 494.570312 501.817654 494.609375 C 501.817654 494.648438 501.848976 494.679688 501.880299 494.679688 L 532.732802 494.679688 " transform="matrix(0.498845,0,0,0.5,-149.65358,-110)"/>
<path style=" stroke:none;fill-rule:nonzero;fill:rgb(36.862745%,36.862745%,36.862745%);fill-opacity:1;" d="M 76.542969 137.773438 L 76.007812 137.773438 L 76.027344 137.273438 L 76.027344 136.773438 L 76.546875 136.773438 Z M 76.542969 137.773438 "/>
<path style="fill-rule:nonzero;fill:rgb(36.862745%,36.862745%,36.862745%);fill-opacity:1;stroke-width:2;stroke-linecap:butt;stroke-linejoin:miter;stroke:rgb(36.862745%,36.862745%,36.862745%);stroke-opacity:1;stroke-miterlimit:4;" d="M 548.002441 494.671875 L 533.727286 499.296875 L 533.727286 490.03125 Z M 548.002441 494.671875 " transform="matrix(0.498845,0,0,0.5,-149.65358,-110)"/>
</g>
</svg>
