<?xml version="1.0" encoding="UTF-8"?>
<svg xmlns="http://www.w3.org/2000/svg" xmlns:xlink="http://www.w3.org/1999/xlink" width="217pt" height="86pt" viewBox="0 0 217 86" version="1.1">
<g id="surface1">
<path style="fill-rule:nonzero;fill:rgb(100%,73.333333%,69.411765%);fill-opacity:1;stroke-width:3;stroke-linecap:butt;stroke-linejoin:miter;stroke:rgb(36.862745%,36.862745%,36.862745%);stroke-opacity:1;stroke-miterlimit:4;" d="M 450.901498 305.453398 C 450.901498 341.601381 421.601977 370.906568 385.451091 370.906568 C 349.300205 370.906568 320.000684 341.609148 320.000684 305.461165 C 320.000684 269.313181 349.300205 240.007994 385.451091 240.007994 C 421.601977 240.007994 450.909292 269.313181 450.909292 305.461165 Z M 450.901498 305.453398 " transform="matrix(0.501155,0,0,0.502924,-150.34642,-110.643275)"/>
<path style=" stroke:none;fill-rule:nonzero;fill:rgb(20%,20%,20%);fill-opacity:1;" d="M 49.6875 49.132812 L 47.4375 43.320312 L 38.347656 43.320312 L 36.09375 49.132812 L 33.28125 49.132812 L 41.402344 29.113281 L 44.460938 29.113281 L 52.421875 49.132812 Z M 46.632812 41.140625 L 42.851562 31.210938 C 41.886719 34.84375 40.359375 37.832031 39.152344 41.140625 L 46.632812 41.140625 "/>
<path style="fill-rule:nonzero;fill:rgb(100%,100%,100%);fill-opacity:1;stroke-width:3;stroke-linecap:butt;stroke-linejoin:miter;stroke:rgb(36.862745%,36.862745%,36.862745%);stroke-opacity:1;stroke-miterlimit:4;" d="M 552.728831 246.120685 C 552.728831 242.819677 555.410138 240.116733 558.730595 240.116733 L 706.732539 240.116733 C 710.029612 240.116733 712.726508 242.819677 712.726508 246.120685 L 712.726508 364.801644 C 712.726508 368.102653 710.029612 370.797829 706.732539 370.797829 L 558.730595 370.797829 C 555.410138 370.797829 552.728831 368.102653 552.728831 364.801644 Z M 552.728831 246.120685 " transform="matrix(0.501155,0,0,0.502924,-150.34642,-110.643275)"/>
<path style=" stroke:none;fill-rule:nonzero;fill:rgb(20%,20%,20%);fill-opacity:1;" d="M 160.875 49.492188 L 160.875 47.3125 L 166.023438 47.3125 L 166.023438 31.976562 L 161.519531 35.125 L 161.519531 32.78125 L 166.183594 29.472656 L 168.515625 29.472656 L 168.515625 47.3125 L 173.421875 47.3125 L 173.421875 49.492188 L 160.875 49.492188 "/>
<path style="fill:none;stroke-width:2;stroke-linecap:butt;stroke-linejoin:miter;stroke:rgb(36.862745%,36.862745%,36.862745%);stroke-opacity:1;stroke-miterlimit:4;" d="M 453.403532 305.453398 L 532.728147 305.453398 " transform="matrix(0.501155,0,0,0.502924,-150.34642,-110.643275)"/>
<path style=" stroke:none;fill-rule:nonzero;fill:rgb(36.862745%,36.862745%,36.862745%);fill-opacity:1;" d="M 76.898438 43.476562 L 76.359375 43.476562 L 76.382812 42.984375 L 76.382812 42.472656 L 76.902344 42.472656 Z M 76.898438 43.476562 "/>
<path style="fill-rule:nonzero;fill:rgb(36.862745%,36.862745%,36.862745%);fill-opacity:1;stroke-width:2;stroke-linecap:butt;stroke-linejoin:miter;stroke:rgb(36.862745%,36.862745%,36.862745%);stroke-opacity:1;stroke-miterlimit:4;" d="M 547.99757 305.453398 L 533.733637 310.090343 L 533.733637 300.808685 Z M 547.99757 305.453398 " transform="matrix(0.501155,0,0,0.502924,-150.34642,-110.643275)"/>
</g>
</svg>
