<svg xmlns="http://www.w3.org/2000/svg" xmlns:xlink="http://www.w3.org/1999/xlink" xmlns:lucid="lucid" width="432.73" height="360"><g transform="translate(-300 -220)" lucid:page-tab-id="0_0"><path d="M450.9 305.45c0 36.15-29.3 65.46-65.45 65.46-36.15 0-65.45-29.3-65.45-65.45 0-36.15 29.3-65.45 65.45-65.45 36.15 0 65.46 29.3 65.46 65.45z" stroke="#5e5e5e" stroke-width="3" fill="#ffbbb1"/><use xlink:href="#a" transform="matrix(1,0,0,1,325,245) translate(41.24574074074082 72.69097222222203)"/><path d="M552.73 246.12c0-3.3 2.68-6 6-6h148c3.3 0 6 2.7 6 6V364.8c0 3.3-2.7 6-6 6h-148c-3.32 0-6-2.7-6-6z" stroke="#5e5e5e" stroke-width="3" fill="#fff"/><use xlink:href="#b" transform="matrix(1,0,0,1,564.7272727272727,252.1212121212121) translate(51.950617283950635 66.28472222222217)"/><path d="M453.4 305.45h79.33" stroke="#5e5e5e" stroke-width="2" fill="none"/><path d="M453.44 306.45h-1.07l.04-.98v-1.02h1.04z" fill="#5e5e5e"/><path d="M548 305.45l-14.27 4.64v-9.28z" stroke="#5e5e5e" stroke-width="2" fill="#5e5e5e"/><path d="M450.9 494.55c0 36.15-29.3 65.45-65.45 65.45-36.15 0-65.45-29.3-65.45-65.45 0-36.15 29.3-65.46 65.45-65.46 36.15 0 65.46 29.3 65.46 65.45z" stroke="#5e5e5e" stroke-width="3" fill="#b2d6ef"/><use xlink:href="#c" transform="matrix(1,0,0,1,325,434.09090909090907) translate(41.24574074074082 72.69097222222203)"/><path d="M552.73 435.2c0-3.3 2.68-6 6-6h148c3.3 0 6 2.7 6 6V553.9c0 3.3-2.7 6-6 6h-148c-3.32 0-6-2.7-6-6z" stroke="#5e5e5e" stroke-width="3" fill="#fff"/><use xlink:href="#d" transform="matrix(1,0,0,1,564.7272727272727,441.21212121212113) translate(51.950617283950635 66.28472222222217)"/><path d="M453.4 494.55h79.33" stroke="#5e5e5e" stroke-width="2" fill="none"/><path d="M453.44 495.55h-1.07l.04-1v-1h1.04z" fill="#5e5e5e"/><path d="M548 494.55l-14.27 4.63v-9.27z" stroke="#5e5e5e" stroke-width="2" fill="#5e5e5e"/><defs><path fill="#333" d="M205 0l-28-72H64L36 0H1l101-248h38L239 0h-34zm-38-99l-47-123c-12 45-31 82-46 123h93" id="e"/><use transform="matrix(0.16049382716049318,0,0,0.16049382716049318,0,0)" xlink:href="#e" id="a"/><path fill="#333" d="M27 0v-27h64v-190l-56 39v-29l58-41h29v221h61V0H27" id="f"/><use transform="matrix(0.16049382716049362,0,0,0.16049382716049362,0,0)" xlink:href="#f" id="b"/><path fill="#333" d="M160-131c35 5 61 23 61 61C221 17 115-2 30 0v-248c76 3 177-17 177 60 0 33-19 50-47 57zm-97-11c50-1 110 9 110-42 0-47-63-36-110-37v79zm0 115c55-2 124 14 124-45 0-56-70-42-124-44v89" id="g"/><use transform="matrix(0.16049382716049318,0,0,0.16049382716049318,0,0)" xlink:href="#g" id="c"/><path fill="#333" d="M101-251c82-7 93 87 43 132L82-64C71-53 59-42 53-27h129V0H18c2-99 128-94 128-182 0-28-16-43-45-43s-46 15-49 41l-32-3c6-41 34-60 81-64" id="h"/><use transform="matrix(0.16049382716049362,0,0,0.16049382716049362,0,0)" xlink:href="#h" id="d"/></defs></g></svg>