<?xml version="1.0" encoding="UTF-8"?>
<svg xmlns="http://www.w3.org/2000/svg" xmlns:xlink="http://www.w3.org/1999/xlink" width="217pt" height="276pt" viewBox="0 0 217 276" version="1.1">
<g id="surface1">
<path style="fill-rule:nonzero;fill:rgb(100%,73.333333%,69.411765%);fill-opacity:1;stroke-width:3;stroke-linecap:butt;stroke-linejoin:miter;stroke:rgb(36.862745%,36.862745%,36.862745%);stroke-opacity:1;stroke-miterlimit:4;" d="M 450.901498 305.446487 C 450.901498 341.599624 421.601977 370.91361 385.451091 370.91361 C 349.300205 370.91361 320.000684 341.607422 320.000684 305.462084 C 320.000684 269.308948 349.300205 240.010558 385.451091 240.010558 C 421.601977 240.010558 450.909292 269.308948 450.909292 305.462084 Z M 450.901498 305.446487 " transform="matrix(0.501155,0,0,0.500907,-150.34642,-110.199637)"/>
<path style=" stroke:none;fill-rule:nonzero;fill:rgb(20%,20%,20%);fill-opacity:1;" d="M 49.949219 47.929688 L 47.613281 41.917969 L 38.171875 41.917969 L 35.835938 47.929688 L 32.910156 47.929688 L 41.347656 27.226562 L 44.523438 27.226562 L 52.789062 47.929688 Z M 46.777344 39.664062 L 42.851562 29.398438 C 41.847656 33.152344 40.261719 36.242188 39.007812 39.664062 L 46.777344 39.664062 "/>
<path style="fill-rule:nonzero;fill:rgb(100%,100%,100%);fill-opacity:1;stroke-width:3;stroke-linecap:butt;stroke-linejoin:miter;stroke:rgb(36.862745%,36.862745%,36.862745%);stroke-opacity:1;stroke-miterlimit:4;" d="M 552.728831 246.116664 C 552.728831 242.817963 555.410138 240.119735 558.730595 240.119735 L 706.732539 240.119735 C 710.029612 240.119735 712.726508 242.817963 712.726508 246.116664 L 712.726508 364.799706 C 712.726508 368.098406 710.029612 370.796634 706.732539 370.796634 L 558.730595 370.796634 C 555.410138 370.796634 552.728831 368.098406 552.728831 364.799706 Z M 552.728831 246.116664 " transform="matrix(0.501155,0,0,0.500907,-150.34642,-110.199637)"/>
<path style=" stroke:none;fill-rule:nonzero;fill:rgb(20%,20%,20%);fill-opacity:1;" d="M 168.917969 37.90625 C 171.675781 38.40625 173.765625 39.574219 173.765625 42.832031 C 173.765625 50.175781 162.152344 50.511719 160.066406 45.253906 C 159.816406 44.585938 159.648438 43.917969 159.566406 43.164062 L 162.238281 42.914062 C 162.738281 45.167969 163.992188 46.585938 166.746094 46.585938 C 169.421875 46.585938 171.089844 45.335938 171.089844 42.746094 C 171.089844 39.574219 168.085938 38.90625 164.492188 39.15625 L 164.492188 36.820312 C 167.75 36.902344 170.507812 36.484375 170.507812 33.3125 C 170.507812 31.058594 169.085938 29.722656 166.664062 29.722656 C 164.324219 29.722656 162.738281 30.976562 162.570312 33.148438 L 159.898438 32.894531 C 160.398438 29.390625 162.820312 27.636719 166.664062 27.554688 C 170.671875 27.46875 173.261719 29.304688 173.261719 32.980469 C 173.261719 35.984375 171.507812 37.320312 168.917969 37.90625 "/>
<path style="fill:none;stroke-width:2;stroke-linecap:butt;stroke-linejoin:miter;stroke:rgb(36.862745%,36.862745%,36.862745%);stroke-opacity:1;stroke-miterlimit:4;" d="M 453.403532 305.446487 L 532.728147 305.446487 " transform="matrix(0.501155,0,0,0.500907,-150.34642,-110.199637)"/>
<path style=" stroke:none;fill-rule:nonzero;fill:rgb(36.862745%,36.862745%,36.862745%);fill-opacity:1;" d="M 76.898438 43.304688 L 76.359375 43.304688 L 76.382812 42.8125 L 76.382812 42.300781 L 76.902344 42.300781 Z M 76.898438 43.304688 "/>
<path style="fill-rule:nonzero;fill:rgb(36.862745%,36.862745%,36.862745%);fill-opacity:1;stroke-width:2;stroke-linecap:butt;stroke-linejoin:miter;stroke:rgb(36.862745%,36.862745%,36.862745%);stroke-opacity:1;stroke-miterlimit:4;" d="M 547.99757 305.446487 L 533.733637 310.086504 L 533.733637 300.806471 Z M 547.99757 305.446487 " transform="matrix(0.501155,0,0,0.500907,-150.34642,-110.199637)"/>
<path style="fill-rule:nonzero;fill:rgb(69.803922%,83.921569%,93.72549%);fill-opacity:1;stroke-width:3;stroke-linecap:butt;stroke-linejoin:miter;stroke:rgb(36.862745%,36.862745%,36.862745%);stroke-opacity:1;stroke-miterlimit:4;" d="M 450.901498 494.548602 C 450.901498 530.701738 421.601977 560.000127 385.451091 560.000127 C 349.300205 560.000127 320.000684 530.701738 320.000684 494.548602 C 320.000684 458.403264 349.300205 429.089278 385.451091 429.089278 C 421.601977 429.089278 450.909292 458.387667 450.909292 494.540803 Z M 450.901498 494.548602 " transform="matrix(0.501155,0,0,0.500907,-150.34642,-110.199637)"/>
<path style=" stroke:none;fill-rule:nonzero;fill:rgb(20%,20%,20%);fill-opacity:1;" d="M 46.191406 131.710938 C 49.117188 132.128906 51.289062 133.632812 51.289062 136.804688 C 51.289062 144.066406 42.433594 142.480469 35.332031 142.648438 L 35.332031 121.945312 C 41.683594 122.195312 50.117188 120.523438 50.117188 126.953125 C 50.117188 129.707031 48.53125 131.125 46.191406 131.710938 Z M 38.089844 130.792969 C 42.265625 130.710938 47.277344 131.542969 47.277344 127.285156 C 47.277344 123.363281 42.015625 124.28125 38.089844 124.199219 Z M 38.089844 140.394531 C 42.683594 140.226562 48.449219 141.5625 48.449219 136.636719 C 48.449219 131.960938 42.601562 133.128906 38.089844 132.964844 L 38.089844 140.394531 "/>
<path style="fill-rule:nonzero;fill:rgb(89.803922%,89.803922%,89.803922%);fill-opacity:1;stroke-width:3;stroke-linecap:butt;stroke-linejoin:miter;stroke:rgb(36.862745%,36.862745%,36.862745%);stroke-opacity:1;stroke-miterlimit:4;" d="M 552.728831 435.203182 C 552.728831 431.896683 555.410138 429.198454 558.730595 429.198454 L 706.732539 429.198454 C 710.029612 429.198454 712.726508 431.896683 712.726508 435.203182 L 712.726508 553.90182 C 712.726508 557.200521 710.029612 559.898749 706.732539 559.898749 L 558.730595 559.898749 C 555.410138 559.898749 552.728831 557.200521 552.728831 553.90182 Z M 552.728831 435.203182 " transform="matrix(0.501155,0,0,0.500907,-150.34642,-110.199637)"/>
<path style=" stroke:none;fill-rule:nonzero;fill:rgb(36.862745%,36.862745%,36.862745%);fill-opacity:1;" d="M 160.652344 143.226562 L 160.652344 140.972656 L 165.996094 140.972656 L 165.996094 125.109375 L 161.320312 128.363281 L 161.320312 125.945312 L 166.164062 122.519531 L 168.585938 122.519531 L 168.585938 140.972656 L 173.679688 140.972656 L 173.679688 143.226562 L 160.652344 143.226562 "/>
<path style="fill-rule:nonzero;fill:rgb(100%,100%,100%);fill-opacity:1;stroke-width:3;stroke-linecap:butt;stroke-linejoin:miter;stroke:rgb(36.862745%,36.862745%,36.862745%);stroke-opacity:1;stroke-miterlimit:4;" d="M 552.728831 625.997537 C 552.728831 622.698837 555.410138 620.000609 558.730595 620.000609 L 706.732539 620.000609 C 710.029612 620.000609 712.726508 622.698837 712.726508 625.997537 L 712.726508 744.672781 C 712.726508 747.971482 710.029612 750.66971 706.732539 750.66971 L 558.730595 750.66971 C 555.410138 750.66971 552.728831 747.971482 552.728831 744.672781 Z M 552.728831 625.997537 " transform="matrix(0.501155,0,0,0.500907,-150.34642,-110.199637)"/>
<path style=" stroke:none;fill-rule:nonzero;fill:rgb(20%,20%,20%);fill-opacity:1;" d="M 171.339844 234.117188 L 171.339844 238.792969 L 168.835938 238.792969 L 168.835938 234.117188 L 159.0625 234.117188 L 159.0625 232.03125 L 168.585938 218.085938 L 171.339844 218.085938 L 171.339844 232.03125 L 174.265625 232.03125 L 174.265625 234.117188 Z M 168.835938 221.09375 C 166.582031 224.933594 163.992188 228.605469 161.484375 232.03125 L 168.835938 232.03125 L 168.835938 221.09375 "/>
<path style="fill:none;stroke-width:2;stroke-linecap:butt;stroke-linejoin:miter;stroke:rgb(36.862745%,36.862745%,36.862745%);stroke-opacity:1;stroke-miterlimit:4;" d="M 453.403532 494.548602 L 495.821195 494.548602 C 499.118268 494.548602 501.822959 497.231233 501.822959 500.553329 L 501.822959 679.330432 C 501.822959 682.652528 504.496472 685.327361 507.816928 685.327361 L 532.720352 685.327361 " transform="matrix(0.501155,0,0,0.500907,-150.34642,-110.199637)"/>
<path style=" stroke:none;fill-rule:nonzero;fill:rgb(36.862745%,36.862745%,36.862745%);fill-opacity:1;" d="M 76.898438 138.023438 L 76.359375 138.023438 L 76.382812 137.523438 L 76.382812 137.023438 L 76.902344 137.023438 Z M 76.898438 138.023438 "/>
<path style="fill-rule:nonzero;fill:rgb(36.862745%,36.862745%,36.862745%);fill-opacity:1;stroke-width:2;stroke-linecap:butt;stroke-linejoin:miter;stroke:rgb(36.862745%,36.862745%,36.862745%);stroke-opacity:1;stroke-miterlimit:4;" d="M 547.99757 685.327361 L 533.733637 689.967377 L 533.733637 680.702941 Z M 547.99757 685.327361 " transform="matrix(0.501155,0,0,0.500907,-150.34642,-110.199637)"/>
</g>
</svg>
