<?xml version="1.0" encoding="UTF-8"?>
<svg xmlns="http://www.w3.org/2000/svg" xmlns:xlink="http://www.w3.org/1999/xlink" width="216pt" height="180pt" viewBox="0 0 216 180" version="1.1">
<g id="surface1">
<path style="fill-rule:nonzero;fill:rgb(100%,73.333333%,69.411765%);fill-opacity:1;stroke-width:3;stroke-linecap:butt;stroke-linejoin:miter;stroke:rgb(36.862745%,36.862745%,36.862745%);stroke-opacity:1;stroke-miterlimit:4;" d="M 450.903194 305.453125 C 450.903194 341.601562 421.601147 370.90625 385.447338 370.90625 C 349.30136 370.90625 319.999313 341.609375 319.999313 305.460938 C 319.999313 269.3125 349.30136 240.007812 385.447338 240.007812 C 421.601147 240.007812 450.911024 269.3125 450.911024 305.460938 Z M 450.903194 305.453125 " transform="matrix(0.498845,0,0,0.5,-149.65358,-110)"/>
<path style=" stroke:none;fill-rule:nonzero;fill:rgb(20%,20%,20%);fill-opacity:1;" d="M 49.460938 48.84375 L 47.21875 43.066406 L 38.171875 43.066406 L 35.929688 48.84375 L 33.125 48.84375 L 41.210938 28.945312 L 44.253906 28.945312 L 52.179688 48.84375 Z M 46.417969 40.902344 L 42.652344 31.03125 C 41.691406 34.640625 40.171875 37.609375 38.972656 40.902344 L 46.417969 40.902344 "/>
<path style="fill-rule:nonzero;fill:rgb(100%,100%,100%);fill-opacity:1;stroke-width:3;stroke-linecap:butt;stroke-linejoin:miter;stroke:rgb(36.862745%,36.862745%,36.862745%);stroke-opacity:1;stroke-miterlimit:4;" d="M 552.732114 246.117188 C 552.732114 242.820312 555.410174 240.117188 558.730342 240.117188 L 706.728389 240.117188 C 710.032896 240.117188 712.726617 242.820312 712.726617 246.117188 L 712.726617 364.796875 C 712.726617 368.101562 710.032896 370.796875 706.728389 370.796875 L 558.730342 370.796875 C 555.410174 370.796875 552.732114 368.101562 552.732114 364.796875 Z M 552.732114 246.117188 " transform="matrix(0.498845,0,0,0.5,-149.65358,-110)"/>
<path style=" stroke:none;fill-rule:nonzero;fill:rgb(20%,20%,20%);fill-opacity:1;" d="M 160.136719 49.203125 L 160.136719 47.035156 L 165.257812 47.035156 L 165.257812 31.789062 L 160.777344 34.917969 L 160.777344 32.59375 L 165.417969 29.300781 L 167.742188 29.300781 L 167.742188 47.035156 L 172.625 47.035156 L 172.625 49.203125 L 160.136719 49.203125 "/>
<path style="fill:none;stroke-width:2;stroke-linecap:butt;stroke-linejoin:miter;stroke:rgb(36.862745%,36.862745%,36.862745%);stroke-opacity:1;stroke-miterlimit:4;" d="M 453.40115 305.453125 L 532.732802 305.453125 " transform="matrix(0.498845,0,0,0.5,-149.65358,-110)"/>
<path style=" stroke:none;fill-rule:nonzero;fill:rgb(36.862745%,36.862745%,36.862745%);fill-opacity:1;" d="M 76.542969 43.226562 L 76.007812 43.226562 L 76.027344 42.734375 L 76.027344 42.226562 L 76.546875 42.226562 Z M 76.542969 43.226562 "/>
<path style="fill-rule:nonzero;fill:rgb(36.862745%,36.862745%,36.862745%);fill-opacity:1;stroke-width:2;stroke-linecap:butt;stroke-linejoin:miter;stroke:rgb(36.862745%,36.862745%,36.862745%);stroke-opacity:1;stroke-miterlimit:4;" d="M 548.002441 305.453125 L 533.727286 310.09375 L 533.727286 300.8125 Z M 548.002441 305.453125 " transform="matrix(0.498845,0,0,0.5,-149.65358,-110)"/>
<path style="fill-rule:nonzero;fill:rgb(69.803922%,83.921569%,93.72549%);fill-opacity:1;stroke-width:3;stroke-linecap:butt;stroke-linejoin:miter;stroke:rgb(36.862745%,36.862745%,36.862745%);stroke-opacity:1;stroke-miterlimit:4;" d="M 450.903194 494.546875 C 450.903194 530.703125 421.601147 560 385.447338 560 C 349.30136 560 319.999313 530.703125 319.999313 494.546875 C 319.999313 458.398438 349.30136 429.09375 385.447338 429.09375 C 421.601147 429.09375 450.911024 458.390625 450.911024 494.539062 Z M 450.903194 494.546875 " transform="matrix(0.498845,0,0,0.5,-149.65358,-110)"/>
<path style=" stroke:none;fill-rule:nonzero;fill:rgb(20%,20%,20%);fill-opacity:1;" d="M 45.855469 132.878906 C 48.660156 133.28125 50.738281 134.722656 50.738281 137.773438 C 50.738281 144.753906 42.253906 143.230469 35.449219 143.390625 L 35.449219 123.488281 C 41.53125 123.730469 49.617188 122.125 49.617188 128.304688 C 49.617188 130.953125 48.097656 132.316406 45.855469 132.878906 Z M 38.089844 131.996094 C 42.09375 131.914062 46.898438 132.71875 46.898438 128.625 C 46.898438 124.855469 41.851562 125.738281 38.089844 125.65625 Z M 38.089844 141.222656 C 42.492188 141.0625 48.019531 142.347656 48.019531 137.613281 C 48.019531 133.121094 42.414062 134.242188 38.089844 134.082031 L 38.089844 141.222656 "/>
<path style="fill-rule:nonzero;fill:rgb(100%,100%,100%);fill-opacity:1;stroke-width:3;stroke-linecap:butt;stroke-linejoin:miter;stroke:rgb(36.862745%,36.862745%,36.862745%);stroke-opacity:1;stroke-miterlimit:4;" d="M 552.732114 435.203125 C 552.732114 431.898438 555.410174 429.203125 558.730342 429.203125 L 706.728389 429.203125 C 710.032896 429.203125 712.726617 431.898438 712.726617 435.203125 L 712.726617 553.898438 C 712.726617 557.203125 710.032896 559.898438 706.728389 559.898438 L 558.730342 559.898438 C 555.410174 559.898438 552.732114 557.203125 552.732114 553.898438 Z M 552.732114 435.203125 " transform="matrix(0.498845,0,0,0.5,-149.65358,-110)"/>
<path style=" stroke:none;fill-rule:nonzero;fill:rgb(20%,20%,20%);fill-opacity:1;" d="M 166.058594 123.605469 C 172.625 123.042969 173.503906 130.589844 169.503906 134.199219 L 164.539062 138.613281 C 163.65625 139.496094 162.695312 140.378906 162.214844 141.582031 L 172.542969 141.582031 L 172.542969 143.75 L 159.414062 143.75 C 159.574219 135.804688 169.664062 136.207031 169.664062 129.144531 C 169.664062 126.898438 168.382812 125.691406 166.058594 125.691406 C 163.738281 125.691406 162.375 126.898438 162.136719 128.984375 L 159.574219 128.742188 C 160.054688 125.453125 162.296875 123.925781 166.058594 123.605469 "/>
<path style="fill:none;stroke-width:2;stroke-linecap:butt;stroke-linejoin:miter;stroke:rgb(36.862745%,36.862745%,36.862745%);stroke-opacity:1;stroke-miterlimit:4;" d="M 453.40115 494.546875 L 532.732802 494.546875 " transform="matrix(0.498845,0,0,0.5,-149.65358,-110)"/>
<path style=" stroke:none;fill-rule:nonzero;fill:rgb(36.862745%,36.862745%,36.862745%);fill-opacity:1;" d="M 76.542969 137.773438 L 76.007812 137.773438 L 76.027344 137.273438 L 76.027344 136.773438 L 76.546875 136.773438 Z M 76.542969 137.773438 "/>
<path style="fill-rule:nonzero;fill:rgb(36.862745%,36.862745%,36.862745%);fill-opacity:1;stroke-width:2;stroke-linecap:butt;stroke-linejoin:miter;stroke:rgb(36.862745%,36.862745%,36.862745%);stroke-opacity:1;stroke-miterlimit:4;" d="M 548.002441 494.546875 L 533.727286 499.179688 L 533.727286 489.90625 Z M 548.002441 494.546875 " transform="matrix(0.498845,0,0,0.5,-149.65358,-110)"/>
</g>
</svg>
